#!OML:ASF C:\Vicon Data\Big\jianyuan-12\jianyuan\Session 1\Capture.male.ASF
:FULLY-SPECIFIED
:DEGREES
14
root -7.895306 16.974816 -22.933254 6.971611 -1.979958 10.107041
lowerback -11.678447 -3.653900 -8.410404 
upperback 2.179448 -3.546590 -0.635129 
thorax 9.430685 -2.136676 3.336924 
lowerneck -0.192953 -9.384258 -8.798124 
upperneck 8.193769 -12.978139 8.907751 
head 3.631045 -6.390749 3.576205 
rclavicle 0.000000 0.000000 
rhumerus -50.750790 -38.418845 -63.237718 
rradius 29.568176 
rwrist 52.865667 
rhand -25.275761 -1.643264 
rfingers 0.000000 
rthumb 1.245264 -31.619342 
lclavicle 0.000000 0.000000 
lhumerus -18.838325 22.158537 83.167403 
lradius 37.197639 
lwrist -37.831696 
lhand -11.819514 4.059274 
lfingers 0.000000 
lthumb 14.230907 33.551738 
rfemur -29.658474 -0.555429 15.012853 
rtibia 23.075729 
rfoot -13.656171 -14.842230 
rtoes -6.425256 
lfemur 5.719146 2.002909 -29.369035 
ltibia 23.753106 
lfoot -16.934635 5.473548 
ltoes -30.748511 
15
root -7.909855 16.969023 -22.865971 6.978766 -2.105352 9.903043
lowerback -11.782412 -3.619519 -8.215643 
upperback 2.151362 -3.530021 -0.553406 
thorax 9.448764 -2.121221 3.316147 
lowerneck -0.166456 -9.391937 -8.787908 
upperneck 8.221685 -12.987229 8.854940 
head 3.631854 -6.396936 3.559111 
rclavicle 0.000000 0.000000 
rhumerus -50.860595 -38.476729 -63.029632 
rradius 29.504642 
rwrist 53.085471 
rhand -25.251058 -1.578604 
rfingers 0.000000 
rthumb 1.269104 -31.554530 
lclavicle 0.000000 0.000000 
lhumerus -19.100242 22.417931 83.151641 
lradius 37.075986 
lwrist -38.028722 
lhand -11.871715 4.162587 
lfingers 0.000000 
lthumb 14.180624 33.658585 
rfemur -29.589438 -0.341084 15.266305 
rtibia 23.414472 
rfoot -14.072135 -14.928122 
rtoes -6.905340 
lfemur 5.264404 2.388201 -29.045798 
ltibia 24.840024 
lfoot -16.325926 5.462790 
ltoes -32.685389 
16
root -7.924854 16.967158 -22.800997 6.974104 -2.216548 9.689631
lowerback -11.858376 -3.579726 -7.970848 
upperback 2.122835 -3.512163 -0.517468 
thorax 9.443195 -2.100064 3.219701 
lowerneck -0.101516 -9.406758 -8.712780 
upperneck 8.224938 -13.011196 8.833739 
head 3.618041 -6.408658 3.543376 
rclavicle 0.000000 0.000000 
rhumerus -51.028635 -38.605199 -62.834049 
rradius 29.422540 
rwrist 53.340726 
rhand -25.244150 -1.491755 
rfingers 0.000000 
rthumb 1.275763 -31.467678 
lclavicle 0.000000 0.000000 
lhumerus -19.377118 22.705464 83.015894 
lradius 36.951894 
lwrist -38.273274 
lhand -11.925491 4.199345 
lfingers 0.000000 
lthumb 14.128809 33.698951 
rfemur -29.511075 -0.142003 15.528661 
rtibia 23.751828 
rfoot -14.445145 -15.002573 
rtoes -7.233479 
lfemur 4.835203 2.631482 -28.722696 
ltibia 25.916211 
lfoot -15.821206 5.470587 
ltoes -33.134734 
17
root -7.938288 16.970907 -22.740253 6.939695 -2.273824 9.516233
lowerback -11.835176 -3.542467 -7.737868 
upperback 2.087619 -3.503208 -0.507189 
thorax 9.373081 -2.081117 3.105379 
lowerneck -0.011307 -9.417184 -8.581208 
upperneck 8.179724 -13.027786 8.793627 
head 3.579905 -6.416975 3.516440 
rclavicle 0.000000 0.000000 
rhumerus -51.185788 -38.734207 -62.681695 
rradius 29.369390 
rwrist 53.407440 
rhand -25.203563 -1.472441 
rfingers 0.000000 
rthumb 1.314970 -31.448156 
lclavicle 0.000000 0.000000 
lhumerus -19.702292 22.849326 82.850567 
lradius 36.858768 
lwrist -38.448778 
lhand -11.870001 4.101981 
lfingers 0.000000 
lthumb 14.182235 33.597795 
rfemur -29.402652 -0.124176 15.782975 
rtibia 24.056856 
rfoot -14.674459 -14.937835 
rtoes -7.418054 
lfemur 4.441457 2.766145 -28.442846 
ltibia 27.001141 
lfoot -15.358908 5.484981 
ltoes -32.777977 
18
root -7.950120 16.975931 -22.681811 6.884529 -2.318291 9.413181
lowerback -11.746720 -3.512353 -7.602889 
upperback 2.047295 -3.496452 -0.480974 
thorax 9.268198 -2.068216 3.065785 
lowerneck 0.056659 -9.397870 -8.488240 
upperneck 8.121585 -13.001367 8.755306 
head 3.540305 -6.404835 3.497737 
rclavicle 0.000000 0.000000 
rhumerus -51.230683 -38.740466 -62.640547 
rradius 29.411868 
rwrist 53.136115 
rhand -25.059997 -1.538296 
rfingers 0.000000 
rthumb 1.453647 -31.513127 
lclavicle 0.000000 0.000000 
lhumerus -20.058953 22.829384 82.786888 
lradius 36.791129 
lwrist -38.599990 
lhand -11.691727 3.951212 
lfingers 0.000000 
lthumb 14.354019 33.434935 
rfemur -29.244415 -0.069303 15.934365 
rtibia 24.286124 
rfoot -14.839089 -14.879190 
rtoes -7.444440 
lfemur 4.045129 2.901708 -28.225431 
ltibia 28.158067 
lfoot -14.892594 5.465435 
ltoes -32.719055 
19
root -7.962062 16.977617 -22.619054 6.855901 -2.418661 9.380034
lowerback -11.763668 -3.522826 -7.594044 
upperback 2.023803 -3.518240 -0.410655 
thorax 9.258830 -2.080020 3.131942 
lowerneck 0.023511 -9.338839 -8.608428 
upperneck 8.120741 -12.922950 8.820518 
head 3.550499 -6.366807 3.538413 
rclavicle 0.000000 0.000000 
rhumerus -51.299234 -38.751174 -62.407827 
rradius 29.361951 
rwrist 53.542448 
rhand -25.100892 -1.414794 
rfingers 0.000000 
rthumb 1.414168 -31.389853 
lclavicle 0.000000 0.000000 
lhumerus -20.302634 23.369194 82.758304 
lradius 36.594076 
lwrist -38.951347 
lhand -11.699232 3.826732 
lfingers 0.000000 
lthumb 14.346852 33.310986 
rfemur -29.096941 -0.232452 16.075853 
rtibia 24.454340 
rfoot -14.841196 -14.504308 
rtoes -7.472426 
lfemur 3.613399 3.122708 -28.087569 
ltibia 29.331196 
lfoot -14.394269 5.479576 
ltoes -32.494430 
20
root -7.977843 16.980181 -22.552915 6.840355 -2.538151 9.258237
lowerback -11.842039 -3.512729 -7.500116 
upperback 2.021538 -3.520414 -0.328278 
thorax 9.300764 -2.080224 3.164005 
lowerneck -0.139122 -9.317320 -8.758805 
upperneck 8.247002 -12.895494 8.910165 
head 3.628218 -6.348960 3.578435 
rclavicle 0.000000 0.000000 
rhumerus -51.235544 -38.722493 -62.314060 
rradius 29.239231 
rwrist 53.852789 
rhand -25.075373 -1.537081 
rfingers 0.000000 
rthumb 1.438804 -31.511991 
lclavicle 0.000000 0.000000 
lhumerus -20.574022 23.778592 82.718171 
lradius 36.505021 
lwrist -39.048539 
lhand -11.727367 3.919276 
lfingers 0.000000 
lthumb 14.319694 33.405484 
rfemur -28.922540 -0.210594 16.282928 
rtibia 24.612236 
rfoot -14.977253 -14.242882 
rtoes -7.541048 
lfemur 3.157160 3.500680 -27.808095 
ltibia 30.494745 
lfoot -13.808946 5.444149 
ltoes -32.579903 
21
root -7.993544 16.983252 -22.487169 6.840405 -2.670212 9.174325
lowerback -11.932635 -3.496820 -7.396812 
upperback 2.003400 -3.510256 -0.301782 
thorax 9.326345 -2.070929 3.133273 
lowerneck -0.169188 -9.305914 -8.695345 
upperneck 8.267752 -12.874243 8.829918 
head 3.628227 -6.338311 3.544441 
rclavicle 0.000000 0.000000 
rhumerus -51.299003 -38.845087 -62.120188 
rradius 29.137643 
rwrist 54.251663 
rhand -25.103408 -1.510213 
rfingers 0.000000 
rthumb 1.411720 -31.485283 
lclavicle 0.000000 0.000000 
lhumerus -20.932901 23.903494 82.594292 
lradius 36.449454 
lwrist -39.113473 
lhand -11.846507 4.157440 
lfingers 0.000000 
lthumb 14.204922 33.651724 
rfemur -28.769560 -0.377814 16.505244 
rtibia 24.763485 
rfoot -15.037913 -13.835835 
rtoes -7.700587 
lfemur 2.698861 3.923152 -27.559203 
ltibia 31.621779 
lfoot -13.135673 5.379226 
ltoes -32.209371 
22
root -8.007675 16.985391 -22.424188 6.770869 -2.758255 9.128316
lowerback -11.908242 -3.488160 -7.307138 
upperback 1.983767 -3.513883 -0.316845 
thorax 9.283373 -2.065910 3.068142 
lowerneck -0.104231 -9.294509 -8.541154 
upperneck 8.233484 -12.856551 8.736562 
head 3.589689 -6.330109 3.498841 
rclavicle 0.000000 0.000000 
rhumerus -51.365160 -38.878217 -62.050966 
rradius 29.106461 
rwrist 54.413492 
rhand -25.111372 -1.496591 
rfingers 0.000000 
rthumb 1.404007 -31.471696 
lclavicle 0.000000 0.000000 
lhumerus -21.277507 24.116950 82.431143 
lradius 36.300014 
lwrist -39.406725 
lhand -11.885398 4.216792 
lfingers 0.000000 
lthumb 14.167461 33.713699 
rfemur -28.536176 -0.458305 16.646444 
rtibia 24.910827 
rfoot -15.185898 -13.566114 
rtoes -7.804241 
lfemur 2.312935 4.238214 -27.360630 
ltibia 32.733041 
lfoot -12.456752 5.346769 
ltoes -31.185441 
